<?xml version="1.0" encoding="utf-8"?>
<!-- Generator: Adobe Illustrator 25.0.1, SVG Export Plug-In . SVG Version: 6.00 Build 0)  -->
<svg version="1.1" id="Logo" xmlns="http://www.w3.org/2000/svg" xmlns:xlink="http://www.w3.org/1999/xlink" x="0px" y="0px"
	 viewBox="0 0 850.33 235.56" style="enable-background:new 0 0 850.33 235.56;" xml:space="preserve">
<style type="text/css">
	.st0{fill:#FFFFFF;}
</style>
<g>
	<path class="st0" d="M748.36,2.45c-0.26-0.05-0.51-0.1-0.77-0.14c-0.47-0.09-0.93-0.16-1.4-0.24
		C681.39-8.98,621.13,25.5,609.76,79.67c-0.05,0.24-0.1,0.48-0.14,0.71c-0.11,0.56-0.22,1.12-0.32,1.68
		c-0.09,0.49-0.17,0.98-0.25,1.46c-0.05,0.32-0.1,0.63-0.15,0.95c-0.11,0.73-0.21,1.46-0.3,2.19c-0.01,0.07-0.02,0.15-0.03,0.22
		c-3.01,24.38,4.34,48.38,19.17,68.48c0.06,0.09,0.13,0.17,0.19,0.26c0.36,0.48,0.73,0.96,1.09,1.44c0.26,0.33,0.51,0.66,0.77,0.99
		c0.17,0.22,0.35,0.44,0.53,0.66c18.44,23.03,46.98,40.37,80.94,46.36c3.46,0.61,6.9,1.09,10.32,1.44l-15.83,29.05l87.35-41.08
		c18.59-9.51,33.86-22.29,43.94-38.3c5.39-8.69,9.31-18.27,11.47-28.57c0.04-0.18,0.07-0.35,0.11-0.53c0.12-0.6,0.24-1.2,0.35-1.8
		c0.1-0.57,0.2-1.15,0.29-1.72c0.02-0.11,0.04-0.22,0.05-0.33C857.73,68.3,813.17,14.67,748.36,2.45z M737.22,140.86l-14.37-2.53
		l5.11-28.79l-28.72-5.06l-5.11,28.79l-14.35-2.53l12.41-70.14l14.35,2.53l-4.75,26.96l28.72,5.06l4.75-26.96l14.37,2.53
		L737.22,140.86z M766.03,145.94l-14.44-2.55L764,73.25l14.4,2.54L766.03,145.94z"/>
	<g>
		<path class="st0" d="M404.21,85.38c0-11.92-3.4-20.57-10.19-25.94c-6.79-5.37-18.15-8.06-34.08-8.06h-38.84v102.45h22.87v-32.69
			h15.83l22.72,32.69h28.14l-25.94-36.64C397.71,112.4,404.21,101.8,404.21,85.38z M376.66,97.55c-2.84,2.54-8.16,3.81-15.98,3.81
			h-16.71V71.02h17.15c7.33,0,12.46,1.03,15.39,3.08c2.93,2.05,4.4,5.84,4.4,11.36C380.91,90.98,379.49,95.01,376.66,97.55z"/>
		<path class="st0" d="M171.39,60.54c-7.18-6.11-18.64-9.16-34.37-9.16h-36.2v102.45h22.87v-28.58h13.63
			c15.15,0,26.41-2.93,33.78-8.79c7.38-5.86,11.07-15.12,11.07-27.77C182.16,76.03,178.57,66.65,171.39,60.54z M154.61,100.85
			c-2.74,3.08-7.92,4.62-15.54,4.62h-15.39V71.02h13.04c7.52,0,13.07,1.25,16.64,3.74c3.56,2.49,5.35,6.69,5.35,12.61
			C158.71,93.28,157.34,97.77,154.61,100.85z"/>
		<path class="st0" d="M73.36,103.24c-5.38-4.79-12.94-8.39-22.67-10.78c-9.73-2.39-15.94-4.47-18.63-6.24
			c-2.69-1.76-4.03-4.13-4.03-7.11c0-2.98,1.1-5.38,3.3-7.19c2.2-1.81,5.21-2.71,9.02-2.71c9.49,0,18.68,3.37,27.58,10.12
			L79.52,62.6c-5.09-4.3-11.05-7.63-17.9-9.98c-6.85-2.35-13.69-3.52-20.54-3.52c-10.47,0-19.2,2.64-26.19,7.92
			C7.9,62.3,4.4,69.81,4.4,79.54c0,9.73,2.76,16.87,8.29,21.42c5.52,4.55,14.25,8.24,26.19,11.08c7.53,1.86,12.57,3.69,15.11,5.5
			c2.54,1.81,3.81,4.25,3.81,7.34s-1.2,5.53-3.6,7.34c-2.4,1.81-5.7,2.71-9.9,2.71c-9.39,0-19.61-4.84-30.66-14.52L0,137.13
			c13.01,12.03,27.63,18.04,43.87,18.04c11.25,0,20.32-2.86,27.22-8.58c6.89-5.72,10.34-13.18,10.34-22.37
			C81.43,115.02,78.73,108.03,73.36,103.24z"/>
		<polygon class="st0" points="417.11,71.16 446.13,71.16 446.13,153.83 469,153.83 469,71.16 498.02,71.16 498.02,51.38 
			417.11,51.38 		"/>
		<path class="st0" d="M247.97,49.03c-15.15,0-27.9,5.06-38.25,15.17c-10.36,10.11-15.54,22.7-15.54,37.74
			c0,15.05,5.18,27.63,15.54,37.74c10.36,10.11,23.11,15.17,38.25,15.17c15.15,0,27.9-5.06,38.26-15.17
			c10.36-10.11,15.54-22.69,15.54-37.74c0-15.05-5.18-27.63-15.54-37.74C275.87,54.09,263.12,49.03,247.97,49.03z M269.66,125.32
			c-5.86,6.4-13.07,9.6-21.62,9.6c-8.55,0-15.76-3.2-21.62-9.6c-5.86-6.4-8.79-14.17-8.79-23.3c0-9.14,2.93-16.93,8.79-23.38
			c5.86-6.45,13.07-9.67,21.62-9.67c8.55,0,15.76,3.22,21.62,9.67c5.86,6.45,8.79,14.24,8.79,23.38
			C278.46,111.16,275.53,118.92,269.66,125.32z"/>
		<path class="st0" d="M579.83,103.2c-5.38-4.79-12.94-8.39-22.67-10.79c-9.73-2.4-15.95-4.47-18.63-6.24
			c-2.69-1.76-4.03-4.13-4.03-7.12c0-2.98,1.1-5.38,3.3-7.19c2.2-1.81,5.21-2.71,9.02-2.71c9.49,0,18.68,3.37,27.58,10.12
			l11.59-16.73c-5.09-4.3-11.06-7.63-17.9-9.98c-6.85-2.35-13.7-3.52-20.54-3.52c-10.47,0-19.2,2.64-26.19,7.92
			c-7,5.28-10.49,12.79-10.49,22.52c0,9.73,2.76,16.87,8.29,21.42c5.52,4.55,14.25,8.24,26.19,11.08c7.53,1.86,12.57,3.69,15.11,5.5
			c2.54,1.81,3.82,4.25,3.82,7.34c0,3.08-1.2,5.53-3.6,7.34c-2.4,1.81-5.7,2.71-9.9,2.71c-9.39,0-19.61-4.84-30.67-14.53
			l-13.65,16.73c13.01,12.03,27.63,18.05,43.87,18.05c11.25,0,20.32-2.86,27.22-8.58c6.9-5.72,10.34-13.18,10.34-22.38
			C587.9,114.99,585.21,108,579.83,103.2z"/>
	</g>
</g>
</svg>
