<svg width="789" height="200" viewBox="0 0 789 200" fill="none" xmlns="http://www.w3.org/2000/svg">
<path d="M75.9951 83.436C90.2799 81.4362 112.564 75.1509 112.564 44.01C112.564 -1.98706 58.5677 0.012799 58.5677 0.012799H0L0 200H69.7098C69.7098 200 136.848 200 138.563 138.575C139.991 89.7214 95.7082 82.579 75.9951 83.436ZM47.4255 76.2936C29.7124 76.2936 17.9988 64.5801 17.9988 46.867C17.9988 28.2967 29.7124 16.5832 47.4255 16.5832H58.8534C58.8534 16.5832 95.4225 14.5833 94.8511 43.1529C94.2797 78.0078 64.853 76.2936 64.853 76.2936H47.4255ZM63.1388 183.43C35.9977 183.43 17.9988 165.431 17.9988 138.29C17.9988 110.291 35.9977 92.0069 63.1388 92.0069H63.4245C63.4245 92.0069 119.421 90.007 119.421 137.718C119.135 186.858 65.1387 183.43 65.1387 183.43H63.1388Z" fill="white"/>
<path d="M216.589 182.001C204.875 182.001 197.161 174.287 197.161 162.574V0.012799H179.163V200H276.585V182.001H216.589Z" fill="white"/>
<path d="M373.275 182.001C351.277 182.001 336.706 167.431 336.706 145.432C336.706 122.862 351.277 108.292 373.275 108.292H426.129V90.2927H372.418C350.991 90.2927 336.706 76.0079 336.706 54.5807C336.706 32.2965 350.991 18.0117 372.418 18.0117H439.271V0.012799H318.707V200H439.271V182.001H373.275Z" fill="white"/>
<path d="M507.128 174.573C513.985 148.003 536.841 130.29 564.267 130.29C592.551 130.29 615.407 148.003 622.264 174.573L628.835 200H648.548L596.837 0.012799H532.841L481.13 200H500.843L507.128 174.573ZM543.412 34.2963C545.983 24.5827 554.554 18.0117 564.553 18.0117C575.124 18.0117 583.695 24.5827 586.266 34.2963L601.979 96.0067C604.551 106.006 599.408 112.577 589.123 112.577H540.269C529.984 112.577 524.841 106.006 527.413 96.0067L543.412 34.2963Z" fill="white"/>
<path d="M703.953 133.719C703.953 122.005 711.952 114.291 723.666 114.291H751.093C762.806 114.291 770.52 122.005 770.52 133.719V200H788.519V96.2924H736.522C724.809 96.2924 721.666 90.2927 728.808 80.8648L788.233 0.5842H764.52L715.381 68.8655C712.238 72.8653 709.667 75.1509 707.953 75.1509C705.381 75.1509 703.953 71.7225 703.953 65.1515V0.012799H686.24V198.572H703.953V133.719Z" fill="white"/>
</svg>
