<?xml version="1.0" encoding="UTF-8"?>
<svg width="199px" height="55px" viewBox="0 0 199 55" version="1.1" xmlns="http://www.w3.org/2000/svg" xmlns:xlink="http://www.w3.org/1999/xlink">
    <!-- Generator: Sketch 63.1 (92452) - https://sketch.com -->
    <title>Group</title>
    <desc>Created with Sketch.</desc>
    <g id="1️⃣-Getting-Started" stroke="none" stroke-width="1" fill="none" fill-rule="evenodd">
        <g id="Group">
            <path d="M184.910936,45.3437731 C189.24454,43.1274264 192.804544,40.1458734 195.156119,36.4131033 C196.412111,34.3863095 197.327001,32.1522431 197.831076,29.7528717 C197.83947,29.7118369 197.848097,29.670802 197.856257,29.6297672 C197.884701,29.4903421 197.911281,29.3499843 197.936928,29.2096266 C197.960709,29.0757971 197.984024,28.9419676 198.005008,28.8083713 C198.009205,28.7829577 198.013168,28.7575441 198.017365,28.7321304 C199.98284,15.9236698 189.592869,3.42040567 174.482495,0.570350646 C174.422575,0.55915933 174.362888,0.54750171 174.302501,0.536543547 C174.193619,0.51649244 174.084737,0.498539704 173.975855,0.479654359 C158.868511,-2.09481452 144.818048,5.94521309 142.167338,18.5755453 C142.155914,18.6308024 142.144956,18.6865258 142.133764,18.7420161 C142.107651,18.871882 142.082704,19.0022142 142.058922,19.1332458 C142.038405,19.2467911 142.01952,19.3605694 142.000867,19.4741147 C141.988743,19.548024 141.976853,19.6217001 141.965428,19.6956094 C141.939548,19.8655775 141.915767,20.0357788 141.894317,20.2057469 C141.891985,20.2230002 141.889654,20.2400203 141.887555,20.2572736 C141.186466,25.9415293 142.89967,31.5362544 146.357553,36.2230841 C146.372242,36.2431352 146.38693,36.2631863 146.401619,36.2832374 C146.485088,36.3956169 146.570888,36.5070638 146.656221,36.6185106 C146.715908,36.6956841 146.774896,36.7730907 146.835282,36.8497978 C146.876084,36.9017908 146.917818,36.9533175 146.958853,37.004611 C151.257018,42.3741109 157.913053,46.4176731 165.829276,47.8135566 C166.635051,47.9555464 167.437795,48.0674596 168.236109,48.1497624 L164.546239,54.9223735 L184.910936,45.3437731 Z" id="Fill-1" fill="#25408E"></path>
            <polygon id="Fill-4" fill="#FFFFFF" points="178.128812 17.079383 181.487139 17.6715901 178.602111 34.026532 175.236323 33.432926"></polygon>
            <polygon id="Fill-6" fill="#FFFFFF" points="171.428641 15.8979065 174.778342 16.4884815 171.885853 32.8422576 168.536153 32.2516826 169.728494 25.539458 163.033523 24.3587742 161.841181 31.071232 158.494978 30.4811232 161.3877 14.1273471 164.733437 14.7174558 163.62503 21.0041773 170.320002 22.184628"></polygon>
            <path d="M87.8186727,22.743471 C87.1576856,23.3361444 85.9161491,23.6317816 84.0938299,23.6317816 L80.1978531,23.6317816 L80.1978531,16.5581708 L84.1961838,16.5581708 C85.9049578,16.5581708 87.1010296,16.7976183 87.7846325,17.2755807 C88.4680022,17.7542426 88.8095704,18.6374239 88.8095704,19.9241921 C88.8095704,21.2114265 88.4789603,22.1512639 87.8186727,22.743471 M94.2431873,19.9071719 C94.2431873,17.1279952 93.4514017,15.1119264 91.8682969,13.8582659 C90.2842594,12.6060043 87.6361144,11.9790575 83.922696,11.9790575 L74.8668233,11.9790575 L74.8668233,35.8659879 L80.1978531,35.8659879 L80.1978531,28.2454015 L83.8886557,28.2454015 L89.1854121,35.8659879 L95.746554,35.8659879 L89.6983474,27.3228174 C92.7276966,26.2067168 94.2431873,23.7346019 94.2431873,19.9071719" id="Fill-8" fill="#249DDE"></path>
            <path d="M36.0472274,23.5122444 C35.4093224,24.2298875 34.2015929,24.5889422 32.4247384,24.5889422 L28.836756,24.5889422 L28.836756,16.5580076 L31.877996,16.5580076 C33.6322347,16.5580076 34.9245985,16.8487486 35.7567195,17.4292981 C36.5879078,18.0103139 37.0038517,18.9902535 37.0038517,20.3686505 C37.0038517,21.7472807 36.684666,22.7946013 36.0472274,23.5122444 M39.959991,14.1148035 C38.2854905,12.691408 35.6142633,11.9791274 31.9463097,11.9791274 L23.5054931,11.9791274 L23.5054931,35.8660578 L28.836756,35.8660578 L28.836756,29.2020957 L32.0146233,29.2020957 C35.5459497,29.2020957 38.1712458,28.5184929 39.8914442,27.1517535 C41.6114095,25.7852472 42.4717419,23.6264891 42.4717419,20.6759454 C42.4717419,17.725868 41.6344916,15.5386652 39.959991,14.1148035" id="Fill-10" fill="#249DDE"></path>
            <path d="M17.103128,24.0698517 C15.848768,22.9525854 14.0870684,22.1146356 11.8182624,21.5555361 C9.54875683,20.9971361 8.10111354,20.5124123 7.47416671,20.1015977 C6.84652043,19.6914826 6.53339675,19.1386783 6.53339675,18.4429515 C6.53339675,17.7474579 6.7898644,17.1888247 7.30303285,16.7668189 C7.81596814,16.3450461 8.51729058,16.1340432 9.40676702,16.1340432 C11.6184507,16.1340432 13.7618208,16.9204663 15.8375767,18.494245 L18.5398131,14.594771 C17.3535337,13.5915162 15.9625464,12.8158182 14.366385,12.2686095 C12.7699905,11.7214008 11.173596,11.4474467 9.57790088,11.4474467 C7.13726149,11.4474467 5.10207412,12.0634353 3.47187249,13.2947132 C1.84143771,14.5259911 1.02610374,16.2767325 1.02610374,18.5455386 C1.02610374,20.8148109 1.67007069,22.4790528 2.95870405,23.5396631 C4.24663794,24.5998071 6.28229161,25.460839 9.06449928,26.1220592 C10.8203701,26.5557227 11.9947587,26.9833242 12.5878985,27.4050969 C13.1805719,27.8273359 13.4773749,28.3969272 13.4773749,29.1152698 C13.4773749,29.8336124 13.1978252,30.4039031 12.639192,30.8254427 C12.0800925,31.2479149 11.3104564,31.4584515 10.3305169,31.4584515 C8.1409826,31.4584515 5.75769869,30.3295275 3.18113144,28.0721459 L1.42108547e-13,31.9716199 C3.03238021,34.7762102 6.44200101,36.178622 10.2274635,36.178622 C12.8497286,36.178622 14.9653536,35.5115729 16.5731726,34.177708 C18.1805252,32.8433768 18.9846679,31.1049924 18.9846679,28.961156 C18.9846679,26.8180191 18.3570216,25.1873512 17.103128,24.0698517" id="Fill-12" fill="#249DDE"></path>
            <polygon id="Fill-15" fill="#249DDE" points="97.2501772 16.5922576 104.016493 16.5922576 104.016493 35.8660345 109.347756 35.8660345 109.347756 16.5922576 116.113606 16.5922576 116.113606 11.9791041 97.2501772 11.9791041"></polygon>
            <path d="M62.8725076,29.2191392 C61.505535,30.7115477 59.8252056,31.4578686 57.8319857,31.4578686 C55.8382995,31.4578686 54.1584364,30.7115477 52.791697,29.2191392 C51.4247244,27.7274301 50.7413547,25.9163022 50.7413547,23.7859886 C50.7413547,21.6559083 51.4247244,19.8389515 52.791697,18.3351185 C54.1584364,16.8317518 55.8382995,16.0798353 57.8319857,16.0798353 C59.8252056,16.0798353 61.505535,16.8317518 62.8725076,18.3351185 C64.2394802,19.8389515 64.9228499,21.6559083 64.9228499,23.7859886 C64.9228499,25.9163022 64.2394802,27.7274301 62.8725076,29.2191392 M57.8149656,11.4321752 C54.2834061,11.4321752 51.3104797,12.6112269 48.8957203,14.9690972 C46.4807276,17.3269675 45.2734645,20.2607242 45.2734645,23.7689685 C45.2734645,27.2772128 46.4807276,30.2105032 48.8957203,32.5681404 C51.3104797,34.926477 54.2834061,36.1050624 57.8149656,36.1050624 C61.3462919,36.1050624 64.3192183,34.926477 66.7342109,32.5681404 C69.1485041,30.2105032 70.3564667,27.2772128 70.3564667,23.7689685 C70.3564667,20.2607242 69.1485041,17.3269675 66.7342109,14.9690972 C64.3192183,12.6112269 61.3462919,11.4321752 57.8149656,11.4321752" id="Fill-17" fill="#249DDE"></path>
            <path d="M135.188457,24.0619012 C133.933398,22.9446349 132.171931,22.106452 129.902892,21.5473525 C127.633386,20.9887193 126.185044,20.5039955 125.558097,20.0934141 C124.930684,19.6830658 124.61756,19.1302615 124.61756,18.4343016 C124.61756,17.7388079 124.874028,17.1801748 125.387196,16.7581689 C125.900131,16.336163 126.601454,16.1251601 127.491164,16.1251601 C129.70308,16.1251601 131.846684,16.9120495 133.92244,18.4855951 L136.625142,14.5856548 C135.439096,13.5821668 134.047409,12.8069351 132.451481,12.2594932 C130.854853,11.7120514 129.257992,11.4385636 127.662064,11.4385636 C125.221192,11.4385636 123.186004,12.0543191 121.55557,13.2858301 C119.924668,14.517108 119.109801,16.2678494 119.109801,18.5368886 C119.109801,20.8063941 119.753768,22.4711023 121.042634,23.5314795 C122.330801,24.5920898 124.366222,25.4531216 127.148896,26.114575 C128.904767,26.5480053 130.079155,26.97584 130.672528,27.3973795 C131.265435,27.8196185 131.562005,28.389443 131.562005,29.1077856 C131.562005,29.8261282 131.282455,30.3966521 130.723822,30.8184248 C130.164722,31.2406638 129.39462,31.4514336 128.41468,31.4514336 C126.225379,31.4514336 123.841862,30.3222765 121.264828,28.0644286 L118.083231,31.9641357 C121.116544,34.7694255 124.526164,36.1720704 128.312093,36.1720704 C130.934591,36.1720704 133.050216,35.5050213 134.658035,34.1706901 C136.265621,32.8368252 137.069531,31.0979745 137.069531,28.953905 C137.069531,26.8105349 136.442351,25.1794007 135.188457,24.0619012" id="Fill-19" fill="#249DDE"></path>
        </g>
    </g>
</svg>