<?xml version="1.0" encoding="utf-8"?>
<!-- Generator: Adobe Illustrator 24.0.3, SVG Export Plug-In . SVG Version: 6.00 Build 0)  -->
<svg version="1.1" id="LinkedIn" xmlns="http://www.w3.org/2000/svg" xmlns:xlink="http://www.w3.org/1999/xlink" x="0px" y="0px"
	 viewBox="0 0 18 18" style="enable-background:new 0 0 18 18;" xml:space="preserve">
<g>
	<path d="M4,2c0,1.1-0.7,2-2,2C0.8,4,0,3.1,0,2.1C0,1,0.8,0,2,0S4,0.9,4,2z M0,18V5h4v13H0z"/>
	<path d="M6,9.4c0-1.5-0.1-2.8-0.1-4h3.6l0.2,1.7h0.1c0.5-0.8,1.7-2,3.8-2c2.5,0,4.4,1.7,4.4,5.3V18h-4v-6.9c0-1.6-0.6-2.8-2-2.8
		c-1.1,0-1.6,0.9-1.9,1.6c-0.1,0.3-0.1,0.6-0.1,1V18H6V9.4z"/>
</g>
</svg>
